PathFileType	4	(X/Y/Z)	C:\Users\Basilio\Documents\Thesis Gigler\squatting_fais\c3dfiles\047\SLS_pre_back3\markers_experimental.trc
DataRate	CameraRate	NumFrames	NumMarkers	Units	OrigDataRate	OrigDataStartFrame	OrigNumFrames
200.000000	200.000000	4	61	mm	200.000000	477	1274
Frame#	Time	FHD			LBHD			RBHD			C7			T10			CLAV			LSHO			LUUPA			LMUPA			LDUPA			LLEP			LMEP			LRAD			LUL			LRFIN			RSHO			RUPA1			RMUPA			RDUPA			RLEP			RMEP			RRAD			RUL			RUFIN			LASI			RASI			USACR			LSACR			RSACR			LTHI1			LTHI2			LTHI3			LTHI4			LLFC			LTIB1			LTIB2			LTIB3			LTIB4			LLMAL			LMMAL			LMT1			LMT2			LMT5			RTHI			RTHI2			RTHI3			RTHI4			RLFC			RMFC			RTIB1			RTIB2			RTIB3			RTIB4			RLMAL			RMMAL			RHEE			RMT1			RMT2			RMT5			LMFC			*60			
		X1	Y1	Z1	X2	Y2	Z2	X3	Y3	Z3	X4	Y4	Z4	X5	Y5	Z5	X6	Y6	Z6	X7	Y7	Z7	X8	Y8	Z8	X9	Y9	Z9	X10	Y10	Z10	X11	Y11	Z11	X12	Y12	Z12	X13	Y13	Z13	X14	Y14	Z14	X15	Y15	Z15	X16	Y16	Z16	X17	Y17	Z17	X18	Y18	Z18	X19	Y19	Z19	X20	Y20	Z20	X21	Y21	Z21	X22	Y22	Z22	X23	Y23	Z23	X24	Y24	Z24	X25	Y25	Z25	X26	Y26	Z26	X27	Y27	Z27	X28	Y28	Z28	X29	Y29	Z29	X30	Y30	Z30	X31	Y31	Z31	X32	Y32	Z32	X33	Y33	Z33	X34	Y34	Z34	X35	Y35	Z35	X36	Y36	Z36	X37	Y37	Z37	X38	Y38	Z38	X39	Y39	Z39	X40	Y40	Z40	X41	Y41	Z41	X42	Y42	Z42	X43	Y43	Z43	X44	Y44	Z44	X45	Y45	Z45	X46	Y46	Z46	X47	Y47	Z47	X48	Y48	Z48	X49	Y49	Z49	X50	Y50	Z50	X51	Y51	Z51	X52	Y52	Z52	X53	Y53	Z53	X54	Y54	Z54	X55	Y55	Z55	X56	Y56	Z56	X57	Y57	Z57	X58	Y58	Z58	X59	Y59	Z59	X60	Y60	Z60	X61	Y61	Z61	

478	2.385	-24.26939201354981	1567.906616210938	-1116.24169921875	-204.2986450195313	1544.564086914063	-1140.590209960938	-179.7203369140625	1544.584106445313	-993.7592773437502	-246.4026184082032	1390.10498046875	-1063.630493164063	-381.8602600097657	1121.697143554688	-1021.717468261719	-124.8363876342774	1289.164306640625	-1095.035034179688	-193.2321014404297	1328.743774414063	-1241.715209960938	-145.4835357666016	1188.120483398438	-1350.468627929688	-99.60256195068362	1211.015502929688	-1348.683959960938	-84.92575836181642	1156.0732421875	-1366.591552734375	-12.77944087982178	1140.692749023438	-1374.376586914063	-25.42723846435548	1084.580322265625	-1301.214721679688	161.5424499511719	1233.39111328125	-1208.13232421875	196.3257141113282	1166.361083984375	-1205.176147460938	253.402084350586	1240.822631835938	-1201.34619140625	-128.8807373046875	1339.80224609375	-940.8472900390627	-41.25761795043946	1201.686401367188	-843.914489746094	-3.23186492919922	1218.269165039063	-869.514099121094	17.39164352416993	1164.309448242188	-852.733581542969	87.39551544189455	1144.321166992188	-876.4510498046877	51.09362030029298	1081.509155273438	-927.9268188476565	nan	nan	nan	247.1247253417969	1176.233154296875	-1084.73681640625	226.4807891845704	1261.04833984375	-1117.756958007813	-305.6376342773438	854.434509277344	-1101.195190429688	-296.0268249511719	875.9764404296877	-875.3171997070315	-447.9250488281251	994.3631591796877	-998.9487915039065	-466.4949340820314	966.049255371094	-1024.170288085938	-460.1900634765626	969.5548095703127	-966.0554809570315	-351.6090393066407	731.5548706054689	-1179.707641601563	-279.4774475097657	686.7025756835939	-1183.561889648438	-240.8724212646485	714.3306884765626	-1171.537719726563	-273.2002868652344	626.9161376953126	-1185.393676757813	-202.6156921386719	477.4224548339845	-1154.903930664063	-210.2422637939454	312.9640197753907	-1041.739990234375	-235.5366210937501	265.4523620605469	-1109.35888671875	-220.256576538086	260.7589416503907	-1065.609008789063	-262.9942626953126	199.5430603027344	-1026.560180664063	-345.3920593261719	121.972640991211	-1064.35693359375	-318.7915954589844	143.6318359375	-978.9621582031252	-209.3471221923829	64.31199645996095	-992.9937133789065	-210.3329315185547	60.05934906005861	-1037.555419921875	-259.2537841796876	48.29388427734376	-1080.892822265625	-371.3547363281251	718.7147827148439	-770.5239868164065	-325.2915344238282	669.9687500000001	-764.4525756835939	-295.9589538574219	672.9662475585939	-777.560241699219	-341.4651184082032	588.1365356445314	-754.8314208984376	-325.1079101562501	456.4682006835939	-766.0145263671876	-325.9360351562501	426.370819091797	-894.7767333984377	-418.1294555664064	376.1528015136719	-768.3558349609377	-509.7292480468751	427.2266540527345	-732.6907958984376	-500.1570434570314	381.9303894042969	-739.6189575195314	-547.3888549804689	357.1746215820313	-766.8156127929689	-707.3823852539064	393.5816955566407	-733.3174438476564	-688.7703247070314	355.7782592773438	-816.5300292968752	-734.6986083984376	442.0101318359376	-794.0407714843752	-763.0755615234376	234.2722167968751	-792.656433105469	-761.8499145507814	233.0700683593751	-747.9807739257814	-792.0350341796877	288.0781860351563	-699.8264160156251	-162.2801818847657	483.4607849121095	-1035.16015625	nan	nan	nan	
479	2.39	-23.97782707214356	1566.375854492188	-1116.3359375	-203.6658782958985	1543.192016601563	-1140.863037109375	-179.2042846679688	1543.242919921875	-994.0574340820315	-246.0191345214844	1389.054443359375	-1063.796020507813	-381.5393066406251	1120.951538085938	-1021.750915527344	-124.2205963134766	1287.61767578125	-1095.06103515625	-193.2065887451172	1327.177978515625	-1241.711669921875	-145.0885772705078	1186.705200195313	-1350.5732421875	-99.57342529296878	1209.506469726563	-1348.398071289063	-84.47407531738283	1154.540771484375	-1366.525756835938	-12.39665317535401	1139.1826171875	-1374.321411132813	-24.96416473388673	1083.018798828125	-1301.078125	161.7915344238282	1231.67138671875	-1207.908447265625	197.2481536865235	1164.540161132813	-1205.198608398438	253.8814697265626	1239.090576171875	-1201.348022460938	-128.2998504638672	1338.294555664063	-940.8515625000002	-40.84038543701173	1200.432006835938	-844.0747680664065	-2.941139698028565	1216.95654296875	-869.1152343750002	17.52103424072266	1162.859375	-853.0486450195315	87.55059051513673	1142.548706054688	-876.7713623046877	51.01015472412111	1080.01220703125	-928.1134033203127	nan	nan	nan	247.2120513916016	1174.132690429688	-1084.590576171875	227.0193023681641	1259.4296875	-1117.769165039063	-305.8564147949219	853.5598144531252	-1101.2177734375	-296.1217651367188	875.112487792969	-875.456237792969	-448.0385742187501	993.6246337890627	-998.8690185546877	-466.7675781250001	964.9550781250002	-1024.243408203125	-460.3168029785157	968.7016601562502	-966.0021972656252	-351.7765502929688	730.7095336914064	-1179.586669921875	-279.6724243164063	686.1798706054689	-1183.455322265625	-241.0010833740235	713.9322509765626	-1171.542724609375	-273.1388549804688	626.3171386718751	-1185.214721679688	-202.2638702392579	477.1579895019532	-1154.786010742188	-209.7702331542969	312.6632995605469	-1042.048706054688	-235.8054809570313	265.0583190917969	-1108.972534179688	-220.2050781250001	260.4511413574219	-1065.156860351563	-262.8883056640626	199.5053253173829	-1026.441650390625	-345.3420104980469	121.9119720458985	-1064.239868164063	-318.8525695800782	143.4964141845703	-978.7122802734377	-209.3644561767579	64.25686645507814	-992.8615722656252	-210.4263000488282	60.03712463378908	-1037.524536132813	-259.2425231933594	48.28281784057619	-1080.880249023438	-371.8455810546876	717.9489135742189	-770.3084106445315	-325.9124450683594	669.3874511718751	-763.9147338867189	-296.4209594726563	672.1745605468751	-777.0072021484377	-341.9448547363282	587.1524047851564	-754.5338745117189	-325.6725158691407	455.7092895507814	-765.5648803710939	-326.2314453125001	424.924285888672	-894.4895019531252	-418.5872497558595	375.3635864257813	-768.313171386719	-510.2456665039064	426.7066040039064	-732.7282104492189	-500.6720275878907	380.9370117187501	-739.5925292968751	-547.8460693359376	356.4559020996094	-767.1278076171876	-707.8471069335939	393.3060607910157	-733.6254882812501	-689.4197387695314	355.2709655761719	-816.5373535156252	-735.2593994140626	441.8540344238282	-794.0272216796877	-763.6850585937501	234.0433349609376	-793.2279052734377	-763.0217895507814	232.8675689697266	-747.1940917968751	-792.9204101562502	287.7817077636719	-699.9982910156251	-162.0082244873047	483.2271118164064	-1035.013061523438	nan	nan	nan	
480	2.395	-22.93395042419434	1565.43408203125	-1116.8828125	-203.0063171386719	1541.709350585938	-1141.253173828125	-178.6334381103516	1542.071655273438	-994.3543701171877	-245.3764190673829	1387.827026367188	-1064.082397460938	-381.5410156250001	1119.942504882813	-1021.860107421875	-124.0368270874024	1286.36572265625	-1095.206176757813	-192.4341583251954	1326.026611328125	-1242.025024414063	-144.6209716796875	1185.162353515625	-1350.530639648438	-98.52093505859378	1208.157104492188	-1349.013305664063	-84.0178909301758	1153.018310546875	-1366.619995117188	-11.93704605102539	1137.506591796875	-1374.352172851563	-24.52895736694337	1081.57373046875	-1301.033203125	162.241439819336	1229.9814453125	-1207.916748046875	197.6566772460938	1162.71826171875	-1205.146850585938	254.261703491211	1237.524536132813	-1201.236694335938	-127.7224807739258	1337.1259765625	-941.0090942382815	-40.53218841552735	1199.028686523438	-844.0483398437502	-2.720429182052613	1215.222290039063	-869.917907714844	17.6716480255127	1161.232421875	-853.2070922851565	87.88622283935548	1140.944580078125	-876.9986572265627	51.27156829833986	1078.358642578125	-928.413757324219	nan	nan	nan	247.8286437988282	1172.770751953125	-1084.802856445313	227.3608093261719	1257.679809570313	-1117.47509765625	-306.3310241699219	852.6538085937502	-1101.024169921875	-296.6038513183594	874.0705566406252	-875.0789794921877	-448.2294921875001	992.7288818359377	-998.8455200195315	-466.8736572265626	964.3081665039065	-1024.159301757813	-460.3953247070314	967.9945068359377	-965.8919067382815	-351.8695373535157	729.9568481445314	-1179.412719726563	-279.7909545898438	685.6783447265626	-1183.334228515625	-241.0982208251954	713.4921264648439	-1171.519287109375	-273.0929565429688	625.6170043945314	-1185.08837890625	-201.9127807617188	476.881805419922	-1154.618408203125	-209.6172027587891	312.4793090820313	-1041.691284179688	-236.1578369140626	264.8929138183594	-1108.298461914063	-220.0528564453126	260.1360168457032	-1064.742553710938	-262.7845764160157	199.416976928711	-1026.126953125	-345.4089660644532	121.9644012451172	-1064.164428710938	-318.9197387695313	143.4295196533203	-978.4656372070315	-209.3974151611329	64.11112213134767	-992.7092895507815	-210.474594116211	60.05160140991212	-1037.464599609375	-259.3284301757813	48.41419601440431	-1080.896240234375	-372.2649536132813	717.2392578125001	-770.1260375976565	-326.4352722167969	668.3711547851564	-763.7323608398439	-296.8927917480469	671.3381347656251	-776.8230590820315	-342.3333740234376	586.4140625000001	-754.3645629882814	-326.2707824707032	454.906707763672	-765.3084106445314	-326.6849975585938	424.0846557617189	-894.3218383789065	-419.4550170898439	374.5885925292969	-767.4951782226564	-510.8698120117189	426.1018371582032	-732.5884399414064	-501.0801391601564	380.4999694824219	-739.5621948242189	-548.8154296875001	356.1553039550782	-766.5784301757814	-708.3150634765626	392.9188842773439	-733.7493286132814	-690.1851196289064	355.0087585449219	-816.705993652344	-735.9288940429689	441.535858154297	-794.0982055664065	-764.2722167968751	234.1910400390626	-793.3459472656252	-763.8353881835939	232.4414367675782	-747.4572143554689	-793.483581542969	287.5091552734376	-700.2742919921876	-161.3600463867188	482.9965820312501	-1035.036376953125	nan	nan	nan	
481	2.4	-22.56081771850586	1563.925659179688	-1117.286499023438	-202.3982849121094	1540.530639648438	-1141.481079101563	-178.038818359375	1540.607177734375	-994.709167480469	-244.5365142822266	1386.59521484375	-1064.271850585938	-381.5133972167969	1119.093017578125	-1021.908813476563	-123.6085739135742	1285.064819335938	-1095.512817382813	-192.2182922363282	1324.419311523438	-1242.095581054688	-144.4302368164063	1183.780517578125	-1350.622436523438	-98.5517272949219	1206.464965820313	-1348.66650390625	-83.67634582519533	1151.4755859375	-1366.522094726563	-11.63593101501465	1135.886352539063	-1374.33447265625	-24.28170967102051	1079.994262695313	-1301.018432617188	162.8936462402344	1228.314331054688	-1208.041748046875	197.3822479248047	1161.3525390625	-1205.02197265625	254.6384429931641	1235.645385742188	-1201.24462890625	-127.3634033203125	1335.618896484375	-941.1782836914065	-40.29737091064454	1197.2880859375	-844.4561157226565	-2.273967504501343	1213.737548828125	-869.2935180664065	17.80936622619629	1159.622436523438	-853.2208251953127	87.74351501464845	1139.387084960938	-876.970886230469	51.32677841186525	1076.666259765625	-928.7097167968752	nan	nan	nan	248.1288146972657	1171.037109375	-1084.890380859375	227.961898803711	1255.996826171875	-1117.615966796875	-306.2559509277344	851.3029785156252	-1101.184692382813	-296.8574523925782	873.1990966796877	-874.9932861328127	-448.3226013183595	991.902282714844	-998.790466308594	-467.1278686523439	963.672058105469	-1024.0576171875	-460.7102050781251	967.185729980469	-965.8311767578127	-352.0509948730469	729.2276611328126	-1179.26904296875	-279.9849853515626	685.1668701171876	-1183.223754882813	-241.1848907470704	713.0792236328126	-1171.451293945313	-273.0374145507813	625.1414184570314	-1184.9404296875	-201.3929748535157	476.4626464843751	-1154.572021484375	-209.2490997314454	312.3489685058594	-1041.830688476563	-236.5386199951172	264.5955505371094	-1107.790771484375	-219.8576660156251	259.9117126464844	-1064.423461914063	-262.6571655273438	199.4046630859376	-1025.771240234375	-345.4931945800782	121.9624862670899	-1064.012329101563	-319.0715332031251	143.082748413086	-977.9854736328127	-209.3138580322266	64.15452575683595	-992.6575317382815	-210.3619384765626	60.12327575683595	-1037.383056640625	-259.2905578613282	48.31856536865236	-1080.885620117188	-372.5675048828126	716.3767089843751	-770.0381469726565	-326.8825378417969	667.5803833007814	-763.5345458984376	-297.4432067871094	670.5318603515626	-776.567321777344	-342.8415222167969	585.7336425781251	-754.1806640625001	-326.8439636230469	454.0985107421876	-764.9699707031251	-327.4607238769532	423.6897583007814	-893.9776611328127	-419.9727172851564	373.9812316894532	-767.5910034179689	-511.4392089843751	425.528533935547	-732.4735107421876	-502.1904907226564	379.9406433105469	-739.2290649414064	-549.5756835937501	355.5449523925782	-766.4891357421876	-709.0359497070314	392.3897094726564	-733.8356933593751	-690.9450683593751	354.6472778320313	-816.801940917969	-736.4443969726564	441.2029724121095	-794.2957153320315	-765.4683837890626	234.2208404541016	-793.3699340820315	-764.5768432617189	232.1629943847657	-747.5410156250001	-794.2655029296877	287.3141479492188	-700.2700805664064	-161.1013336181641	482.7861328125001	-1034.812255859375	nan	nan	nan	
